<?xml version="1.0" encoding="UTF-8"?>
<svg width="500" height="100" version="1.1" viewBox="0 0 132.29 26.458" xmlns="http://www.w3.org/2000/svg" xmlns:cc="http://creativecommons.org/ns#" xmlns:dc="http://purl.org/dc/elements/1.1/" xmlns:rdf="http://www.w3.org/1999/02/22-rdf-syntax-ns#" xmlns:xlink="http://www.w3.org/1999/xlink">
 <defs>
  <linearGradient id="linearGradient2712" x1="-385.94" x2="-1076.8" y1="1200.4" y2="1214" gradientTransform="matrix(.10937 0 0 .10937 -348.57 -127.31)" gradientUnits="userSpaceOnUse">
   <stop stop-color="#6c0d11" offset="0"/>
   <stop stop-color="#6c0d11" stop-opacity="0" offset="1"/>
  </linearGradient>
  <clipPath id="clipPath3541">
   <rect x="-512.51" y="-10.124" width="132.29" height="26.458" ry="5.8465" fill="#e31b23" stroke-linecap="round" stroke-linejoin="round" stroke-width=".6335" style="paint-order:stroke fill markers"/>
  </clipPath>
 </defs>
 <metadata>
  <rdf:RDF>
   <cc:Work rdf:about="">
    <dc:format>image/svg+xml</dc:format>
    <dc:type rdf:resource="http://purl.org/dc/dcmitype/StillImage"/>
    <dc:title/>
   </cc:Work>
  </rdf:RDF>
 </metadata>
 <g transform="translate(512.51 10.124)">
  <g stroke-linecap="round" stroke-linejoin="round">
   <path d="m-506.66-10.124h120.6c3.239 0 5.8465 2.6075 5.8465 5.8465v14.765c0 3.239-2.6076 5.8465-5.8465 5.8465h-120.6c-3.239 0-5.8465-2.6075-5.8465-5.8465v-14.765c0-3.239 2.6076-5.8465 5.8465-5.8465z" fill="#e31b23" stroke-width=".6335" style="paint-order:stroke fill markers"/>
   <g clip-path="url(#clipPath3541)" fill="url(#linearGradient2712)" stroke-width="7.2639" style="paint-order:stroke fill markers" aria-label="&gt;&gt;&gt;&gt;">
    <path d="m-470.06-10.974h13.698l12.933 14.08-12.933 14.08h-13.698l12.997-14.08z"/>
    <path d="m-435.59-10.974h13.698l12.933 14.08-12.933 14.08h-13.698l12.997-14.08z"/>
    <path d="m-401.13-10.974h13.698l12.933 14.08-12.933 14.08h-13.698l12.997-14.08z"/>
    <path d="m-366.66-10.974h13.698l12.933 14.08-12.933 14.08h-13.698l12.997-14.08z"/>
   </g>
   <g fill="#fefafa" stroke-width=".6446" style="paint-order:stroke fill markers" aria-label="add to your server">
    <path d="m-456.27 3.0986q0-0.59538 0.22154-1.0454 0.22846-0.44999 0.61615-0.6923 0.38768-0.2423 0.86537-0.2423 0.40846 0 0.71307 0.16615 0.31153 0.16615 0.47768 0.43615v-0.54692h1.1838v3.863h-1.1838v-0.54692q-0.17307 0.27-0.48461 0.43615-0.30461 0.16615-0.71306 0.16615-0.47077 0-0.85845-0.2423-0.38769-0.24923-0.61615-0.69922-0.22154-0.45692-0.22154-1.0523zm2.8938 0.00692q0-0.44307-0.24922-0.69922-0.24231-0.25615-0.59538-0.25615t-0.6023 0.25615q-0.24231 0.24923-0.24231 0.6923 0 0.44307 0.24231 0.70614 0.24923 0.25615 0.6023 0.25615t0.59538-0.25615q0.24922-0.25615 0.24922-0.69922z"/>
    <path d="m-451.57 3.0986q0-0.59538 0.22153-1.0454 0.22846-0.44999 0.61615-0.6923t0.86537-0.2423q0.38077 0 0.6923 0.15923 0.31846 0.15923 0.49846 0.42923v-1.7931h1.1838v5.123h-1.1838v-0.55384q-0.16616 0.27692-0.47769 0.44307-0.30461 0.16615-0.71307 0.16615-0.47768 0-0.86537-0.2423-0.38769-0.24923-0.61615-0.69922-0.22153-0.45692-0.22153-1.0523zm2.8938 0.00692q0-0.44307-0.24923-0.69922-0.24231-0.25615-0.59538-0.25615t-0.6023 0.25615q-0.2423 0.24923-0.2423 0.6923 0 0.44307 0.2423 0.70614 0.24923 0.25615 0.6023 0.25615t0.59538-0.25615q0.24923-0.25615 0.24923-0.69922z"/>
    <path d="m-446.87 3.0986q0-0.59538 0.22153-1.0454 0.22846-0.44999 0.61615-0.6923t0.86537-0.2423q0.38077 0 0.6923 0.15923 0.31846 0.15923 0.49846 0.42923v-1.7931h1.1838v5.123h-1.1838v-0.55384q-0.16615 0.27692-0.47769 0.44307-0.30461 0.16615-0.71307 0.16615-0.47768 0-0.86537-0.2423-0.38769-0.24923-0.61615-0.69922-0.22153-0.45692-0.22153-1.0523zm2.8938 0.00692q0-0.44307-0.24923-0.69922-0.2423-0.25615-0.59538-0.25615-0.35307 0-0.6023 0.25615-0.2423 0.24923-0.2423 0.6923 0 0.44307 0.2423 0.70614 0.24923 0.25615 0.6023 0.25615 0.35308 0 0.59538-0.25615 0.24923-0.25615 0.24923-0.69922z"/>
    <path d="m-438.18 4.0332v1.0038h-0.6023q-0.64384 0-1.0038-0.31153-0.35999-0.31846-0.35999-1.0315v-1.5369h-0.47077v-0.98306h0.47077v-0.94153h1.1838v0.94153h0.77537v0.98306h-0.77537v1.5507q0 0.17307 0.0831 0.24923 0.0831 0.076153 0.27692 0.076153z"/>
    <path d="m-435.77 5.0925q-0.56769 0-1.0246-0.2423-0.45-0.2423-0.71307-0.6923-0.25615-0.44999-0.25615-1.0523 0-0.59538 0.26307-1.0454 0.26307-0.45692 0.71999-0.69922t1.0246-0.2423q0.56769 0 1.0246 0.2423 0.45691 0.2423 0.71999 0.69922 0.26307 0.44999 0.26307 1.0454 0 0.59538-0.27 1.0523-0.26307 0.44999-0.72691 0.6923-0.45692 0.2423-1.0246 0.2423zm0-1.0177q0.33922 0 0.57461-0.24923 0.2423-0.25615 0.2423-0.71999 0-0.46384-0.23538-0.71307-0.22846-0.25615-0.56769-0.25615-0.34615 0-0.5746 0.24923-0.22846 0.24923-0.22846 0.71999 0 0.46384 0.22153 0.71999 0.22846 0.24923 0.56769 0.24923z"/>
    <path d="m-430.63 1.174 0.89307 2.4161 0.88614-2.4161h1.2808l-2.423 5.6976h-1.2738l0.88614-1.9661-1.5715-3.7315z"/>
    <path d="m-425.38 5.0925q-0.56769 0-1.0246-0.2423-0.45-0.2423-0.71307-0.6923-0.25615-0.44999-0.25615-1.0523 0-0.59538 0.26307-1.0454 0.26308-0.45692 0.71999-0.69922 0.45692-0.2423 1.0246-0.2423 0.56768 0 1.0246 0.2423t0.71999 0.69922q0.26307 0.44999 0.26307 1.0454 0 0.59538-0.26999 1.0523-0.26308 0.44999-0.72692 0.6923-0.45691 0.2423-1.0246 0.2423zm0-1.0177q0.33923 0 0.57461-0.24923 0.2423-0.25615 0.2423-0.71999 0-0.46384-0.23538-0.71307-0.22846-0.25615-0.56768-0.25615-0.34615 0-0.57461 0.24923t-0.22846 0.71999q0 0.46384 0.22153 0.71999 0.22846 0.24923 0.56769 0.24923z"/>
    <path d="m-418.92 1.174v3.863h-1.1838v-0.52615q-0.17999 0.25615-0.49153 0.41538-0.30461 0.15231-0.67845 0.15231-0.44307 0-0.7823-0.19384-0.33923-0.20077-0.52615-0.57461-0.18692-0.37384-0.18692-0.87922v-2.2569h1.1769v2.0977q0 0.38769 0.20077 0.6023 0.20076 0.21461 0.53999 0.21461 0.34615 0 0.54692-0.21461 0.20076-0.21461 0.20076-0.6023v-2.0977z"/>
    <path d="m-416.88 1.8663q0.20769-0.33923 0.51923-0.53307 0.31846-0.20077 0.6923-0.20077v1.2531h-0.32538q-0.44307 0-0.66461 0.19384-0.22154 0.18692-0.22154 0.66461v1.7931h-1.1838v-3.863h1.1838z"/>
    <path d="m-411.94 5.0925q-0.49846 0-0.89307-0.17307-0.39461-0.17307-0.62307-0.47076-0.22845-0.30461-0.25615-0.67845h1.17q0.0208 0.21461 0.18 0.34615 0.16615 0.12461 0.41538 0.12461 0.22153 0 0.33922-0.089999 0.12462-0.089999 0.12462-0.2423 0-0.16615-0.17308-0.24923-0.17307-0.083076-0.56768-0.17307-0.41538-0.096922-0.6923-0.20077-0.27-0.10384-0.47077-0.3323-0.19384-0.23538-0.19384-0.62307 0-0.33923 0.18-0.60922 0.18692-0.27692 0.53999-0.43615 0.35307-0.16615 0.84461-0.16615 0.72691 0 1.1423 0.36 0.4223 0.36 0.48461 0.95537h-1.0938q-0.0277-0.21461-0.18-0.3323-0.14538-0.12461-0.38769-0.12461-0.20769 0-0.31846 0.083076-0.11076 0.083076-0.11076 0.23538 0 0.16615 0.17307 0.24923 0.18 0.083076 0.55384 0.16615 0.4223 0.10384 0.69922 0.21461 0.27692 0.10384 0.47769 0.34615 0.20077 0.23538 0.20077 0.63692 0 0.33923-0.18693 0.60922-0.18692 0.27-0.54691 0.4223-0.35307 0.15231-0.83076 0.15231z"/>
    <path d="m-406 3.0363q0 0.15923-0.0208 0.33923h-2.6792q0.0277 0.36692 0.22846 0.56076t0.50538 0.19384q0.44307 0 0.61614-0.37384h1.26q-0.0969 0.38076-0.35308 0.68538-0.24922 0.30461-0.62999 0.47769-0.38076 0.17307-0.85153 0.17307-0.56768 0-1.0108-0.2423-0.44307-0.2423-0.6923-0.6923t-0.24923-1.0523q0-0.6023 0.2423-1.0523 0.24923-0.44999 0.6923-0.6923 0.44308-0.2423 1.0177-0.2423 0.56077 0 0.99691 0.23538 0.43615 0.23538 0.67846 0.67153 0.24922 0.43615 0.24922 1.0108zm-1.2115-0.26307q0-0.3323-0.20769-0.51922t-0.51922-0.18692q-0.30461 0-0.5123 0.18692-0.20077 0.18-0.24923 0.51922z"/>
    <path d="m-404.19 1.8663q0.20769-0.33923 0.51922-0.53307 0.31846-0.20077 0.6923-0.20077v1.2531h-0.32538q-0.44307 0-0.6646 0.19384-0.22154 0.18692-0.22154 0.66461v1.7931h-1.1838v-3.863h1.1838z"/>
    <path d="m-400.67 3.9294 0.83769-2.7553h1.2669l-1.3708 3.863h-1.4677l-1.3708-3.863h1.2669z"/>
    <path d="m-394.44 3.0363q0 0.15923-0.0208 0.33923h-2.6792q0.0277 0.36692 0.22846 0.56076t0.50537 0.19384q0.44308 0 0.61615-0.37384h1.26q-0.0969 0.38076-0.35307 0.68538-0.24923 0.30461-0.62999 0.47769-0.38077 0.17307-0.85153 0.17307-0.56768 0-1.0108-0.2423-0.44308-0.2423-0.6923-0.6923-0.24923-0.44999-0.24923-1.0523 0-0.6023 0.2423-1.0523 0.24923-0.44999 0.6923-0.6923t1.0177-0.2423q0.56076 0 0.99691 0.23538 0.43615 0.23538 0.67846 0.67153 0.24922 0.43615 0.24922 1.0108zm-1.2115-0.26307q0-0.3323-0.20769-0.51922t-0.51922-0.18692q-0.30462 0-0.51231 0.18692-0.20076 0.18-0.24922 0.51922z"/>
    <path d="m-392.63 1.8663q0.20769-0.33923 0.51922-0.53307 0.31846-0.20077 0.6923-0.20077v1.2531h-0.32538q-0.44307 0-0.66461 0.19384-0.22153 0.18692-0.22153 0.66461v1.7931h-1.1838v-3.863h1.1838z"/>
   </g>
  </g>
  <g transform="matrix(.19911 0 0 .19911 -496.32 -38.505)">
   <g transform="translate(0 -.29069)">
    <g stroke-opacity="0">
     <path d="m-14.585 208.99a10.394 10.394 0 0 1-9.5858 10.832 10.394 10.394 0 0 1-11.131-9.2368 10.394 10.394 0 0 1 8.8784-11.419 10.394 10.394 0 0 1 11.695 8.511z" fill="#6c0d11" style="paint-order:stroke fill markers"/>
     <path d="m55.152 208.99a10.394 10.394 0 0 1-9.5858 10.832 10.394 10.394 0 0 1-11.131-9.2368 10.394 10.394 0 0 1 8.8784-11.419 10.394 10.394 0 0 1 11.695 8.511z" fill="#6c0d11" style="paint-order:stroke fill markers"/>
     <path d="m-16.996 184h53.792c4.6557 0 8.4038 3.7481 8.4038 8.4038v34.108c0 4.6557-3.7481 8.4038-8.4038 8.4038h-53.792c-4.6557 0-8.4038-3.7481-8.4038-8.4038v-34.108c0-4.6557 3.7481-8.4038 8.4038-8.4038z" fill="#fff" style="paint-order:stroke fill markers"/>
    </g>
    <g transform="matrix(.84362 0 0 .84362 1.4742 35.122)">
     <path transform="translate(-1.1562 1.3772)" d="m0.37305 185.73c-6.3408 0-11.51 5.1689-11.51 11.51 0 6.3408 5.169 11.51 11.51 11.51 6.3408 0 11.51-5.169 11.51-11.51 0-4.919 3.9912-8.9102 8.9102-8.9102s8.9102 3.9912 8.9102 8.9102c0 4.919-3.9912 8.9102-8.9102 8.9102-2.3843 0-4.6154-0.92008-6.3008-2.6055-0.50116-0.50117-1.3328-0.50117-1.834 0-0.50117 0.50116-0.50116 1.3328 0 1.834 2.1701 2.1701 5.0654 3.3711 8.1348 3.3711 6.3408 0 11.51-5.169 11.51-11.51 0-6.3408-5.169-11.51-11.51-11.51-6.3408 0-11.51 5.1689-11.51 11.51 0 4.919-3.9912 8.9102-8.9102 8.9102-4.919 0-8.9102-3.9912-8.9102-8.9102 0-4.919 3.9912-8.9102 8.9102-8.9102 1.7758 0 3.4852 0.51808 4.9531 1.502a0.59488 0.59488 0 0 0 0.00195 0c0.48789 0.32636 0.94436 0.7041 1.3574 1.1191a0.59488 0.59488 0 0 0 0.00195 0c0.50134 0.50136 1.3321 0.50664 1.8359 4e-3 0.50373-0.50117 0.50448-1.3348 0.00391-1.8379-0.53393-0.53616-1.1248-1.0212-1.7539-1.4434-1.8956-1.2699-4.1125-1.9434-6.4004-1.9434z" fill="#e31b23" stroke-width=".70413"/>
     <path d="m-3.1406 225h25.844" fill="none" stroke="#e31b23" stroke-linecap="round" stroke-linejoin="round" stroke-width="2.365"/>
    </g>
    <path transform="matrix(.20529 0 0 .81528 -11.551 54.723)" d="m-7.5372 136.52 14.195 23.932-27.824 0.32734z" fill="#fff" style="paint-order:stroke fill markers"/>
    <path d="m-10.023 168.22a3.0783 3.0783 0 0 1-2.8388 3.2078 3.0783 3.0783 0 0 1-3.2964-2.7354 3.0783 3.0783 0 0 1 2.6293-3.3817 3.0783 3.0783 0 0 1 3.4635 2.5205z" fill="#fff" style="paint-order:stroke fill markers"/>
   </g>
  </g>
 </g>
</svg>
