<?xml version="1.0" encoding="UTF-8"?>
<svg width="446.82mm" height="265.57mm" version="1.1" viewBox="0 0 446.82 265.57" xmlns="http://www.w3.org/2000/svg" xmlns:cc="http://creativecommons.org/ns#" xmlns:dc="http://purl.org/dc/elements/1.1/" xmlns:rdf="http://www.w3.org/1999/02/22-rdf-syntax-ns#">
 <metadata>
  <rdf:RDF>
   <cc:Work rdf:about="">
    <dc:format>image/svg+xml</dc:format>
    <dc:type rdf:resource="http://purl.org/dc/dcmitype/StillImage"/>
    <dc:title/>
   </cc:Work>
  </rdf:RDF>
 </metadata>
 <g transform="translate(144.79 -37.104)">
  <g transform="matrix(1.7 0 0 1.7 -55.033 -150.86)" fill="#e31b23" stroke-linecap="round" stroke-linejoin="round" stroke-width="3.2799" style="paint-order:stroke fill markers" aria-label="discord2lastfm">
   <path d="m-52.798 256.68q0-2.9238 1.1977-5.1783 1.2329-2.2545 3.3113-3.4874 2.1136-1.2682 4.6851-1.2682 1.9022 0 3.734 0.84543 1.867 0.81021 2.959 2.184v-9.3702h4.051v26.068h-4.051v-2.9238q-0.98634 1.4091-2.7477 2.3249-1.7261 0.91589-3.9806 0.91589-2.5363 0-4.6499-1.2682-2.0784-1.3034-3.3113-3.5931-1.1977-2.325-1.1977-5.2487zm15.887 0.0705q0-2.0079-0.84543-3.4874-0.81021-1.4795-2.1488-2.2545t-2.8886-0.77498q-1.55 0-2.8886 0.77498-1.3386 0.73976-2.184 2.2193-0.81021 1.4443-0.81021 3.4522 0 2.0079 0.81021 3.5226 0.84543 1.5147 2.184 2.325 1.3738 0.77498 2.8886 0.77498 1.55 0 2.8886-0.77498 1.3386-0.77499 2.1488-2.2545 0.84543-1.5147 0.84543-3.5226z"/>
   <path d="m-25.542 244.49q-1.092 0-1.8318-0.73976-0.73975-0.73975-0.73975-1.8318t0.73975-1.8318q0.73976-0.73976 1.8318-0.73976 1.0568 0 1.7965 0.73976 0.73976 0.73975 0.73976 1.8318t-0.73976 1.8318q-0.73975 0.73976-1.7965 0.73976zm1.9727 2.5715v19.41h-4.0158v-19.41z"/>
   <path d="m-11.322 266.79q-2.2545 0-4.051-0.81021-1.7965-0.84543-2.8533-2.2545-1.0568-1.4443-1.1272-3.2056h4.1567q0.10568 1.3386 1.1625 2.2193 1.092 0.88066 2.7124 0.88066 1.6909 0 2.6068-0.6693 0.95111-0.70453 0.95111-1.867 0-1.0568-1.0568-1.6204-1.0568-0.56362-3.2761-1.1272-2.1488-0.59885-3.5226-1.1272-1.3386-0.56362-2.3249-1.6909-0.98634-1.1625-0.98634-2.9942 0-1.5852 0.88066-2.8886 0.88066-1.3386 2.5363-2.1136 1.6909-0.77498 3.9454-0.77498 3.3113 0 5.3192 1.6909 2.0431 1.6556 2.184 4.5442h-4.0158q-0.10568-1.409-1.0568-2.2193-0.95111-0.84544-2.5715-0.84544-1.5852 0-2.4306 0.66931-0.84543 0.63407-0.84543 1.7261 0 0.77498 0.56362 1.3034 0.56362 0.52839 1.4091 0.84543 0.84543 0.28181 2.3954 0.70453 2.1136 0.56362 3.4522 1.1272 1.3386 0.56362 2.2897 1.7261 0.95111 1.1272 0.95111 2.959 0 1.6556-0.88066 2.9942-0.88066 1.3034-2.5715 2.0784-1.6556 0.73976-3.9454 0.73976z"/>
   <path d="m-0.85308 256.75q0-2.9942 1.1977-5.2487 1.2329-2.2897 3.3817-3.5226 2.1488-1.2329 4.9317-1.2329 3.5226 0 5.8124 1.6909 2.3249 1.6556 3.1352 4.7556h-4.3328q-0.5284-1.4443-1.6909-2.2545-1.1625-0.81021-2.9238-0.81021-2.4658 0-3.9454 1.7613-1.4443 1.7261-1.4443 4.8612t1.4443 4.8965q1.4795 1.7613 3.9454 1.7613 3.4874 0 4.6147-3.0647h4.3328q-0.84543 2.959-3.1704 4.7203-2.3249 1.7261-5.7771 1.7261-2.7829 0-4.9317-1.2329-2.1488-1.2682-3.3817-3.5226-1.1977-2.2897-1.1977-5.284z"/>
   <path d="m30.027 266.79q-2.7477 0-4.9669-1.2329-2.2193-1.2682-3.4874-3.5226-1.2682-2.2897-1.2682-5.284 0-2.959 1.3034-5.2487 1.3034-2.2897 3.5579-3.5226 2.2545-1.2329 5.0374-1.2329 2.7829 0 5.0374 1.2329 2.2545 1.2329 3.5579 3.5226 1.3034 2.2897 1.3034 5.2487 0 2.959-1.3386 5.2487t-3.6635 3.5579q-2.2897 1.2329-5.0726 1.2329zm0-3.3817q1.55 0 2.8886-0.77499 1.3738-0.77498 2.2193-2.2545 0.84543-1.5147 0.84543-3.6283 0-2.1136-0.81021-3.5931-0.81021-1.5147-2.1488-2.2545-1.3386-0.77498-2.8886-0.77498-1.55 0-2.8533 0.77498-1.3034 0.73976-2.1136 2.2545-0.77498 1.4795-0.77498 3.5931 0 2.1136 0.73975 3.6283 0.77498 1.5147 2.0431 2.2897 1.3034 0.73976 2.8533 0.73976z"/>
   <path d="m48.122 250.44q0.88066-1.7613 2.3249-2.7124 1.4795-0.98634 3.4874-0.98634v4.1567h-1.0216q-2.3602 0-3.5931 1.1977-1.1977 1.1977-1.1977 4.1567v10.216h-4.0158v-19.41h4.0158z"/>
   <path d="m56.321 256.68q0-2.9238 1.1977-5.1783 1.2329-2.2545 3.3113-3.4874 2.1136-1.2682 4.6851-1.2682 1.9022 0 3.734 0.84543 1.867 0.81021 2.959 2.184v-9.3702h4.051v26.068h-4.051v-2.9238q-0.98634 1.4091-2.7477 2.3249-1.7261 0.91589-3.9806 0.91589-2.5363 0-4.6499-1.2682-2.0784-1.3034-3.3113-3.5931-1.1977-2.325-1.1977-5.2487zm15.887 0.0705q0-2.0079-0.84543-3.4874-0.81021-1.4795-2.1488-2.2545t-2.8886-0.77498q-1.55 0-2.8886 0.77498-1.3386 0.73976-2.184 2.2193-0.81021 1.4443-0.81021 3.4522 0 2.0079 0.81021 3.5226 0.84543 1.5147 2.184 2.325 1.3738 0.77498 2.8886 0.77498 1.55 0 2.8886-0.77498 1.3386-0.77499 2.1488-2.2545 0.84543-1.5147 0.84543-3.5226z"/>
   <path d="m83.295 260.94q3.3817-2.8886 5.3192-4.7556t3.2056-3.8397q1.3034-2.0079 1.3034-3.9454 0-2.0079-1.0216-3.1704-0.98634-1.1625-3.1352-1.1625-2.0784 0-3.2408 1.3386-1.1272 1.3034-1.1977 3.5226h-3.8749q0.10568-4.0158 2.3954-6.1294 2.3249-2.1488 5.8828-2.1488 2.5715 0 4.4033 0.95111 1.8318 0.95112 2.7829 2.6772 0.98634 1.7261 0.98634 3.9454 0 2.4306-1.3034 4.7203-1.2682 2.2897-3.0295 4.1215-1.7613 1.8318-4.509 4.2624l-1.6204 1.4443h11.167v3.3465h-17.12v-2.9238z"/>
   <path d="m105.85 240.4v26.068h-4.0158v-26.068z"/>
   <path d="m109.78 256.68q0-2.9238 1.1977-5.1783 1.2329-2.2545 3.3113-3.4874 2.1136-1.2682 4.6499-1.2682 2.2897 0 3.9806 0.91588 1.7261 0.88066 2.7477 2.2193v-2.8181h4.051v19.41h-4.051v-2.8886q-1.0216 1.3738-2.7829 2.2897-1.7613 0.91589-4.0158 0.91589-2.5011 0-4.5794-1.2682-2.0784-1.3034-3.3113-3.5931-1.1977-2.325-1.1977-5.2487zm15.887 0.0705q0-2.0079-0.84543-3.4874-0.81021-1.4795-2.1488-2.2545t-2.8886-0.77498q-1.55 0-2.8886 0.77498-1.3386 0.73976-2.184 2.2193-0.8102 1.4443-0.8102 3.4522 0 2.0079 0.8102 3.5226 0.84544 1.5147 2.184 2.325 1.3738 0.77498 2.8886 0.77498 1.55 0 2.8886-0.77498 1.3386-0.77499 2.1488-2.2545 0.84543-1.5147 0.84543-3.5226z"/>
   <path d="m141.97 266.79q-2.2545 0-4.051-0.81021-1.7966-0.84543-2.8533-2.2545-1.0568-1.4443-1.1272-3.2056h4.1567q0.10568 1.3386 1.1625 2.2193 1.092 0.88066 2.7124 0.88066 1.6909 0 2.6068-0.6693 0.95111-0.70453 0.95111-1.867 0-1.0568-1.0568-1.6204t-3.2761-1.1272q-2.1488-0.59885-3.5226-1.1272-1.3386-0.56362-2.3249-1.6909-0.98634-1.1625-0.98634-2.9942 0-1.5852 0.88066-2.8886 0.88066-1.3386 2.5363-2.1136 1.6909-0.77498 3.9454-0.77498 3.3113 0 5.3192 1.6909 2.0431 1.6556 2.184 4.5442h-4.0158q-0.10568-1.409-1.0568-2.2193-0.95111-0.84544-2.5715-0.84544-1.5852 0-2.4306 0.66931-0.84543 0.63407-0.84543 1.7261 0 0.77498 0.56362 1.3034 0.56362 0.52839 1.4091 0.84543 0.84543 0.28181 2.3954 0.70453 2.1136 0.56362 3.4522 1.1272 1.3386 0.56362 2.2897 1.7261 0.95112 1.1272 0.95112 2.959 0 1.6556-0.88066 2.9942-0.88066 1.3034-2.5715 2.0784-1.6556 0.73976-3.9454 0.73976z"/>
   <path d="m158.46 250.34v10.744q0 1.092 0.49317 1.5852 0.52839 0.45794 1.7613 0.45794h2.4658v3.3465h-3.1704q-2.7124 0-4.1567-1.2682-1.4443-1.2682-1.4443-4.1215v-10.744h-2.2897v-3.276h2.2897v-4.826h4.051v4.826h4.7203v3.276z"/>
   <path d="m174.98 250.34h-3.5931v16.134h-4.051v-16.134h-2.2897v-3.276h2.2897v-1.3738q0-3.3465 1.7613-4.8612 1.7966-1.55 5.601-1.55v3.3465q-1.8318 0-2.5715 0.70453-0.73975 0.6693-0.73975 2.3602v1.3738h3.5931z"/>
   <path d="m202.04 246.75q2.2897 0 4.0863 0.95111 1.8318 0.95111 2.8533 2.8181 1.0568 1.867 1.0568 4.509v11.449h-3.9806v-10.85q0-2.6068-1.3034-3.9806-1.3034-1.4091-3.5579-1.4091t-3.5931 1.4091q-1.3034 1.3738-1.3034 3.9806v10.85h-3.9806v-10.85q0-2.6068-1.3034-3.9806-1.3034-1.4091-3.5579-1.4091t-3.5931 1.4091q-1.3034 1.3738-1.3034 3.9806v10.85h-4.0158v-19.41h4.0158v2.2193q0.98634-1.1977 2.5011-1.867 1.5147-0.6693 3.2408-0.6693 2.3249 0 4.1567 0.98634 1.8318 0.98634 2.8181 2.8533 0.88066-1.7613 2.7477-2.7829 1.867-1.0568 4.0158-1.0568z"/>
  </g>
  <g transform="matrix(2.5038 0 0 2.5038 288.75 -905.62)">
   <path d="m-119.22 410.3a10.394 10.394 0 0 0-1.0232 0.093 10.394 10.394 0 0 0-8.8785 11.419 10.394 10.394 0 0 0 9.9016 9.2582v-20.77z" fill="#6c0d11" stroke-opacity="0" style="paint-order:stroke fill markers"/>
   <path d="m-48.624 410.3v20.77a10.394 10.394 0 0 0 0.36689-0.0217 10.394 10.394 0 0 0 9.5855-10.832l-0.14315-1.3126a10.394 10.394 0 0 0-9.809-8.6042z" fill="#6c0d11" stroke-opacity="0" style="paint-order:stroke fill markers"/>
   <g>
    <path d="m-106.9 376.51a3.0781 3.0781 0 0 0-0.4537 0.03 3.0781 3.0781 0 0 0-2.6293 3.3816 3.0781 3.0781 0 0 0 2.3084 2.6511l-1.7906 12.654h-1.3554c-4.6556 0-8.4041 3.7478-8.4041 8.4036v34.107c0 4.6555 3.7483 8.4041 8.4041 8.4041h53.792c4.6555 0 8.4036-3.7483 8.4036-8.4041v-34.107c0-4.6556-3.7478-8.4036-8.4036-8.4036h-47.209l-1.8913-12.664a3.0781 3.0781 0 0 0 2.2825-3.113l-0.0424-0.38861a3.0781 3.0781 0 0 0-3.0096-2.5507z" fill="#e31b23" stroke-opacity="0" style="paint-order:stroke fill markers"/>
    <path d="m-93.007 404.2c-5.3492 0-9.7101 4.3606-9.7101 9.7101 0 5.3492 4.3607 9.7101 9.7101 9.7101 5.3492 0 9.7101-4.3607 9.7101-9.7101 0-4.1498 3.3671-7.5168 7.5168-7.5168 4.1498 0 7.5168 3.3671 7.5168 7.5168 0 4.1498-3.3671 7.5168-7.5168 7.5168-2.0114 0-3.8936-0.7762-5.3155-2.1981-0.42279-0.42279-1.1244-0.42279-1.5472 0-0.4228 0.42279-0.42279 1.1244 0 1.5472 1.8307 1.8307 4.2733 2.8439 6.8627 2.8439 5.3492 0 9.7101-4.3607 9.7101-9.7101 0-5.3492-4.3607-9.7101-9.7101-9.7101-5.3492 0-9.7101 4.3606-9.7101 9.7101 0 4.1498-3.3671 7.5168-7.5168 7.5168-4.1498 0-7.5168-3.3671-7.5168-7.5168 0-4.1498 3.3671-7.5168 7.5168-7.5168 1.4981 0 2.9402 0.43706 4.1785 1.2671a0.50185 0.50185 0 0 0 0.0016 0c0.41159 0.27532 0.79668 0.59399 1.1451 0.94409a0.50185 0.50185 0 0 0 0.0016 0c0.42294 0.42296 1.1238 0.42741 1.5488 3e-3 0.42496-0.42279 0.42559-1.1261 0.0033-1.5505-0.45036-0.45233-0.94883-0.86152-1.4796-1.2177-1.5992-1.0713-3.4694-1.6395-5.3995-1.6395z" fill="#fff" stroke-width=".59402"/>
    <path d="m-94.997 435.17a0.9976 0.9976 0 0 0-0.99609 0.99804 0.9976 0.9976 0 0 0 0.99609 0.9961h21.805a0.9976 0.9976 0 0 0 0.99609-0.9961 0.9976 0.9976 0 0 0-0.99609-0.99804z" color="#000000" color-rendering="auto" dominant-baseline="auto" fill="#fff" image-rendering="auto" shape-rendering="auto" solid-color="#000000" stop-color="#000000" style="font-feature-settings:normal;font-variant-alternates:normal;font-variant-caps:normal;font-variant-east-asian:normal;font-variant-ligatures:normal;font-variant-numeric:normal;font-variant-position:normal;font-variation-settings:normal;inline-size:0;isolation:auto;mix-blend-mode:normal;shape-margin:0;shape-padding:0;text-decoration-color:#000000;text-decoration-line:none;text-decoration-style:solid;text-indent:0;text-orientation:mixed;text-transform:none;white-space:normal"/>
   </g>
  </g>
 </g>
</svg>
