<?xml version="1.0" encoding="UTF-8"?>
<svg width="1688.8" height="1003.8" version="1.1" viewBox="0 0 446.82 265.59" xmlns="http://www.w3.org/2000/svg" xmlns:cc="http://creativecommons.org/ns#" xmlns:dc="http://purl.org/dc/elements/1.1/" xmlns:rdf="http://www.w3.org/1999/02/22-rdf-syntax-ns#">
 <metadata>
  <rdf:RDF>
   <cc:Work rdf:about="">
    <dc:format>image/svg+xml</dc:format>
    <dc:type rdf:resource="http://purl.org/dc/dcmitype/StillImage"/>
    <dc:title/>
   </cc:Work>
  </rdf:RDF>
 </metadata>
 <g transform="translate(144.79 -37.085)">
  <g fill="#e31b23" stroke-linecap="round" stroke-linejoin="round" stroke-width="4.9089" style="paint-order:stroke fill markers" aria-label="Cordscrobbler">
   <path d="m-144.79 283.85q0-5.4304 2.3725-9.7008 2.3725-4.3232 6.4848-6.6957 4.1123-2.4252 9.1736-2.4252 6.1685 0 10.544 2.9524 4.4286 2.8997 6.4321 8.2246h-4.3232q-1.5817-3.6905-4.8504-5.7467-3.216-2.1089-7.8028-2.1089-4.0596 0-7.3284 1.898-3.216 1.898-5.0613 5.4304-1.8453 3.5324-1.8453 8.1719 0 4.6395 1.8453 8.1719 1.8453 3.4796 5.0613 5.3776 3.2688 1.898 7.3284 1.898 4.5868 0 7.8028-2.0562 3.2688-2.0562 4.8504-5.694h4.3232q-2.0034 5.2722-6.4321 8.1719t-10.544 2.8997q-5.0613 0-9.1736-2.3725-4.1123-2.4252-6.4848-6.6957t-2.3725-9.7008z"/>
   <path d="m-85.899 302.67q-5.114 0-9.2791-2.3725-4.165-2.4252-6.5903-6.6957-2.3725-4.3232-2.3725-9.7536 0-5.4304 2.3725-9.7008 2.4252-4.3232 6.5903-6.6957 4.165-2.4252 9.2791-2.4252 5.1668 0 9.3318 2.4252 4.165 2.3725 6.5375 6.6957 2.3725 4.2705 2.3725 9.7008 0 5.4304-2.3725 9.7536-2.3725 4.2705-6.5375 6.6957-4.165 2.3725-9.3318 2.3725zm0-3.3215q4.1123 0 7.3811-1.898t5.1668-5.4304q1.898-3.5324 1.898-8.1719 0-4.6395-1.898-8.1192-1.898-3.5324-5.1668-5.4304t-7.3811-1.898-7.3811 1.898-5.1668 5.4304q-1.898 3.4797-1.898 8.1192 0 4.6395 1.898 8.1719 1.898 3.5324 5.1668 5.4304t7.3811 1.898z"/>
   <path d="m-41.296 302.3-9.1209-15.395h-6.8011v15.395h-3.6905v-36.853h11.072q6.1685 0 9.3318 2.9524 3.216 2.9524 3.216 7.7501 0 4.0069-2.3198 6.8539-2.267 2.7943-6.7484 3.6378l9.49 15.658zm-15.922-18.347h7.4338q4.3232 0 6.4848-2.1089 2.2143-2.1089 2.2143-5.694 0-3.6905-2.1616-5.694-2.1089-2.0562-6.5902-2.0562h-7.3811z"/>
   <path d="m-19.047 265.45q6.1158 0 10.492 2.2143 4.3759 2.2143 6.6957 6.3794 2.3198 4.165 2.3198 9.9117 0 5.694-2.3198 9.859-2.3198 4.1123-6.6957 6.3266-4.3759 2.1616-10.492 2.1616h-10.913v-36.853zm0 33.953q7.6974 0 11.704-4.0596 4.0596-4.1123 4.0596-11.388 0-7.2756-4.0596-11.388-4.0069-4.1123-11.704-4.1123h-7.2229v30.948z"/>
   <path d="m19.387 302.67q-3.8487 0-6.9593-1.318-3.0579-1.318-4.8504-3.796-1.7925-2.4779-1.8453-5.8521h7.9083q0.15817 2.3198 1.5817 3.6905 1.4762 1.3708 4.0069 1.3708 2.5834 0 4.0596-1.2653 1.4762-1.2653 1.4762-3.3742 0-1.6344-1.0017-2.6888t-2.5307-1.6344q-1.4762-0.63266-4.1123-1.3708-3.5851-1.0544-5.8521-2.0562-2.2143-1.0544-3.8487-3.1106-1.5817-2.1089-1.5817-5.5885 0-3.2688 1.6344-5.694 1.6344-2.4252 4.5868-3.6905 2.9524-1.318 6.7484-1.318 5.694 0 9.2264 2.7943 3.5851 2.7416 3.9542 7.6974h-8.1192q-0.10544-2.0562-1.6344-3.2688-1.4762-1.2653-3.9542-1.2653-2.1616 0-3.4797 1.1599-1.2653 1.1072-1.2653 3.3215 0 1.4762 0.949 2.4779 1.0017 0.94899 2.4252 1.5817 1.4762 0.57994 4.1123 1.3708 3.5851 1.0544 5.8521 2.1089t3.9014 3.1633 1.6344 5.5358q0 2.9524-1.5289 5.4831-1.5289 2.5306-4.4814 4.0596-2.9524 1.4762-7.012 1.4762z"/>
   <path d="m36.996 283.85q0-5.4304 2.4252-9.7008 2.4779-4.3232 6.6957-6.6957 4.2705-2.4252 9.5427-2.4252 6.1685 0 10.808 3.1633t6.4848 8.7518h-8.4882q-1.318-2.5307-3.5851-3.796-2.267-1.318-5.2722-1.318-3.216 0-5.7467 1.4762-2.4779 1.4762-3.9014 4.2178-1.3708 2.7416-1.3708 6.3266 0 3.5851 1.3708 6.3266 1.4235 2.6888 3.9014 4.2178 2.5307 1.4762 5.7467 1.4762 3.0052 0 5.2722-1.318 2.3198-1.318 3.5851-3.8487h8.4882q-1.8453 5.6413-6.4848 8.8046-4.5868 3.1106-10.808 3.1106-5.2722 0-9.5427-2.3725-4.2178-2.4252-6.6957-6.6957-2.4252-4.2705-2.4252-9.7008z"/>
   <path d="m98.259 302.3-8.1192-14.34h-3.4797v14.34h-7.3811v-36.8h13.813q4.2705 0 7.2756 1.5289 3.0052 1.4762 4.4814 4.0596 1.5289 2.5306 1.5289 5.694 0 3.6378-2.1089 6.5902-2.1089 2.8997-6.2739 4.0069l8.8046 14.92zm-11.599-19.823h6.1685q3.0052 0 4.4814-1.4762 1.4762-1.4762 1.4762-4.0596t-1.4762-4.0069q-1.4762-1.4762-4.4814-1.4762h-6.1685z"/>
   <path d="m130.16 302.67q-5.1668 0-9.49-2.4252-4.3232-2.4252-6.8539-6.6957-2.5306-4.3232-2.5306-9.7536 0-5.3776 2.5306-9.6481 2.5307-4.3232 6.8539-6.7484 4.3232-2.4252 9.49-2.4252 5.2195 0 9.49 2.4252 4.3232 2.4252 6.8011 6.7484 2.5307 4.2705 2.5307 9.6481 0 5.4304-2.5307 9.7536-2.4779 4.2705-6.8011 6.6957-4.3232 2.4252-9.49 2.4252zm0-6.8011q3.3215 0 5.8522-1.4762 2.5306-1.5289 3.9542-4.2178 1.4235-2.7415 1.4235-6.3794t-1.4235-6.3266q-1.4235-2.7415-3.9542-4.2178-2.5307-1.4762-5.8522-1.4762-3.3215 0-5.9049 1.4762-2.5307 1.4762-3.9542 4.2178-1.4235 2.6888-1.4235 6.3266t1.4235 6.3794q1.4235 2.6888 3.9542 4.2178 2.5834 1.4762 5.9049 1.4762z"/>
   <path d="m175.34 283.43q3.1106 0.57994 5.114 3.1106 2.0034 2.5307 2.0034 5.7994 0 2.9524-1.4762 5.2195-1.4235 2.2143-4.165 3.4796-2.7415 1.2653-6.4848 1.2653h-15.869v-36.8h15.184q3.7433 0 6.4321 1.2126 2.7415 1.2126 4.1123 3.3742 1.4235 2.1616 1.4235 4.9032 0 3.216-1.7398 5.3776-1.6871 2.1616-4.5341 3.0579zm-13.497-2.6361h6.7484q2.6361 0 4.0596-1.2126 1.4235-1.2126 1.4235-3.4796 0-2.267-1.4762-3.5324-1.4235-1.2653-4.0069-1.2653h-6.7484zm7.4338 15.658q2.6888 0 4.165-1.2653 1.5289-1.318 1.5289-3.7433 0-2.3725-1.5817-3.7433t-4.2705-1.3708h-7.2756v10.123z"/>
   <path d="m209.24 283.43q3.1106 0.57994 5.114 3.1106 2.0034 2.5307 2.0034 5.7994 0 2.9524-1.4762 5.2195-1.4235 2.2143-4.165 3.4796-2.7415 1.2653-6.4848 1.2653h-15.869v-36.8h15.184q3.7433 0 6.4321 1.2126 2.7416 1.2126 4.1123 3.3742 1.4235 2.1616 1.4235 4.9032 0 3.216-1.7398 5.3776-1.6871 2.1616-4.5341 3.0579zm-13.497-2.6361h6.7484q2.6361 0 4.0596-1.2126 1.4235-1.2126 1.4235-3.4796 0-2.267-1.4762-3.5324-1.4235-1.2653-4.0069-1.2653h-6.7484zm7.4338 15.658q2.6888 0 4.165-1.2653 1.5289-1.318 1.5289-3.7433 0-2.3725-1.5817-3.7433t-4.2705-1.3708h-7.2756v10.123z"/>
   <path d="m229.64 296.66h12.126v5.6412h-19.507v-36.8h7.3811z"/>
   <path d="m253.84 271.25v9.5427h12.39v5.694h-12.39v9.9645h13.971v5.8521h-21.352v-36.853h21.352v5.7994z"/>
   <path d="m293.49 302.3-8.1192-14.34h-3.4796v14.34h-7.3811v-36.8h13.813q4.2705 0 7.2756 1.5289 3.0052 1.4762 4.4814 4.0596 1.5289 2.5306 1.5289 5.694 0 3.6378-2.1089 6.5902-2.1089 2.8997-6.2739 4.0069l8.8046 14.92zm-11.599-19.823h6.1685q3.0052 0 4.4814-1.4762 1.4762-1.4762 1.4762-4.0596t-1.4762-4.0069q-1.4762-1.4762-4.4814-1.4762h-6.1685z"/>
  </g>
  <g transform="matrix(2.5038 0 0 2.5038 288.74 -905.62)">
   <path d="m-119.22 410.3a10.394 10.394 0 0 0-1.0232 0.093 10.394 10.394 0 0 0-8.8785 11.419 10.394 10.394 0 0 0 9.9016 9.2582v-20.77z" fill="#6c0d11" stroke-opacity="0" style="paint-order:stroke fill markers"/>
   <path d="m-48.624 410.3v20.77a10.394 10.394 0 0 0 0.36689-0.0217 10.394 10.394 0 0 0 9.5855-10.832l-0.14315-1.3126a10.394 10.394 0 0 0-9.809-8.6042z" fill="#6c0d11" stroke-opacity="0" style="paint-order:stroke fill markers"/>
   <path d="m-106.9 376.51a3.0781 3.0781 0 0 0-0.4537 0.03 3.0781 3.0781 0 0 0-2.6293 3.3816 3.0781 3.0781 0 0 0 2.3084 2.6511l-1.7906 12.654h-1.3554c-4.6556 0-8.4041 3.7478-8.4041 8.4036v34.107c0 4.6555 3.7483 8.4041 8.4041 8.4041h53.792c4.6555 0 8.4036-3.7483 8.4036-8.4041v-34.107c0-4.6556-3.7478-8.4036-8.4036-8.4036h-47.209l-1.8913-12.664a3.0781 3.0781 0 0 0 2.2825-3.113l-0.0424-0.38861a3.0781 3.0781 0 0 0-3.0096-2.5507z" fill="#e31b23" stroke-opacity="0" style="paint-order:stroke fill markers"/>
   <path d="m-93.007 404.2c-5.3492 0-9.7101 4.3606-9.7101 9.7101 0 5.3492 4.3607 9.7101 9.7101 9.7101 5.3492 0 9.7101-4.3607 9.7101-9.7101 0-4.1498 3.3671-7.5168 7.5168-7.5168 4.1498 0 7.5168 3.3671 7.5168 7.5168 0 4.1498-3.3671 7.5168-7.5168 7.5168-2.0114 0-3.8936-0.7762-5.3155-2.1981-0.42279-0.42279-1.1244-0.42279-1.5472 0s-0.42279 1.1244 0 1.5472c1.8307 1.8307 4.2733 2.8439 6.8627 2.8439 5.3492 0 9.7101-4.3607 9.7101-9.7101 0-5.3492-4.3607-9.7101-9.7101-9.7101-5.3492 0-9.7101 4.3606-9.7101 9.7101 0 4.1498-3.3671 7.5168-7.5168 7.5168-4.1498 0-7.5168-3.3671-7.5168-7.5168 0-4.1498 3.3671-7.5168 7.5168-7.5168 1.4981 0 2.9402 0.43706 4.1785 1.2671a0.50185 0.50185 0 0 0 0.0016 0c0.41159 0.27532 0.79668 0.59399 1.1451 0.94409a0.50185 0.50185 0 0 0 0.0016 0c0.42294 0.42296 1.1238 0.42741 1.5488 3e-3 0.42496-0.42279 0.42559-1.1261 0.0033-1.5505-0.45036-0.45233-0.94883-0.86152-1.4796-1.2177-1.5992-1.0713-3.4694-1.6395-5.3995-1.6395z" fill="#fff" stroke-width=".59402"/>
   <path d="m-94.997 435.17a0.9976 0.9976 0 0 0-0.99609 0.99804 0.9976 0.9976 0 0 0 0.99609 0.9961h21.805a0.9976 0.9976 0 0 0 0.99609-0.9961 0.9976 0.9976 0 0 0-0.99609-0.99804z" color="#000000" color-rendering="auto" dominant-baseline="auto" fill="#fff" image-rendering="auto" shape-rendering="auto" solid-color="#000000" stop-color="#000000" style="font-feature-settings:normal;font-variant-alternates:normal;font-variant-caps:normal;font-variant-east-asian:normal;font-variant-ligatures:normal;font-variant-numeric:normal;font-variant-position:normal;font-variation-settings:normal;inline-size:0;isolation:auto;mix-blend-mode:normal;shape-margin:0;shape-padding:0;text-decoration-color:#000000;text-decoration-line:none;text-decoration-style:solid;text-indent:0;text-orientation:mixed;text-transform:none;white-space:normal"/>
  </g>
 </g>
</svg>
